<?xml version="1.0" encoding="UTF-8"?>
<svg width="26px" height="27px" viewBox="0 0 26 27" version="1.1" xmlns="http://www.w3.org/2000/svg" xmlns:xlink="http://www.w3.org/1999/xlink">
    <!-- Generator: Sketch 53.2 (72643) - https://sketchapp.com -->
    <title>sailboat-line@2x</title>
    <desc>Created with Sketch.</desc>
    <g id="Page-1" stroke="none" stroke-width="1" fill="none" fill-rule="evenodd">
        <g id="首页" transform="translate(-57.000000, -761.000000)" fill="#FDA007" fill-rule="nonzero">
            <g id="sailboat-line" transform="translate(57.000000, 761.000000)">
                <path d="M0.6875,21.4375 L24.6875,21.4375 C24.9400147,21.4375 25.1708568,21.5801682 25.2837848,21.8060243 C25.3967128,22.0318803 25.3723422,22.3021549 25.2208333,22.5041667 L22.4208333,26.2375 C22.1690275,26.5732411 21.7738431,26.7708333 21.3541667,26.7708333 L4.02083334,26.7708333 C3.60115693,26.7708333 3.2059725,26.5732411 2.95416666,26.2375 L0.154166656,22.5041667 C0.00265782949,22.3021549 -0.0217128175,22.0318803 0.0912151954,21.8060243 C0.204143208,21.5801682 0.434985293,21.4375 0.6875,21.4375 L0.6875,21.4375 Z M6.2355,16.1041667 L14.0208333,16.1041667 L14.0208333,6.3735 L6.2355,16.1041667 Z M16.6875,0.670833344 L16.6875,17.4375 C16.6875,18.1738797 16.0905463,18.7708333 15.3541667,18.7708333 L2.07416666,18.7708333 C1.81817502,18.7704689 1.58500066,18.6235551 1.47416958,18.3927991 C1.36333851,18.1620431 1.39442744,17.8882047 1.55416666,17.6881667 L15.5008333,0.254833344 C15.6777646,0.0342969911 15.9745647,-0.050646511 16.2413829,0.0428897469 C16.508201,0.136426005 16.6869974,0.388095454 16.6875,0.670833344 L16.6875,0.670833344 Z" id="Shape"></path>
            </g>
        </g>
    </g>
</svg>